<svg xmlns="http://www.w3.org/2000/svg" width="224" height="52" viewBox="0 0 224 52"><defs><style>.a{fill:#0070c0;}</style></defs><title>stopwords_logo_small</title><path class="a" d="M16.65,31.42a9.69,9.69,0,0,1-3.4-.5,6,6,0,0,1-2.75-2,5.66,5.66,0,0,1-1.1-3.58c0-.57,0-1.15,0-1.75s.08-1.13.15-1.6a7.25,7.25,0,0,1,1.75-4.15,6.55,6.55,0,0,1,3.7-2.05,10.53,10.53,0,0,1,2.2-.22q1.35,0,3,0H27.1l-.45,4.95h-8a8.69,8.69,0,0,0-1.3.1,2.53,2.53,0,0,0-1.75.83,3,3,0,0,0-.75,1.87,2.54,2.54,0,0,0-.05.5v.5a2,2,0,0,0,1.4,2.05,3.65,3.65,0,0,0,.87.15c.39,0,.76.05,1.13.05H20.6a7.24,7.24,0,0,1,4.85,1.58,5.61,5.61,0,0,1,1.85,4.52,17,17,0,0,1-.1,1.73c-.07.58-.14,1.15-.2,1.72a8,8,0,0,1-1.78,4.2,6.34,6.34,0,0,1-3.67,2.1,11.11,11.11,0,0,1-2.18.23l-3,0H8.5L9,37.67H18a8.79,8.79,0,0,0,1.3-.1,2.67,2.67,0,0,0,2.5-2.4,4.42,4.42,0,0,0,.12-.8c0-.27,0-.48,0-.65A2,2,0,0,0,21.22,32a3.19,3.19,0,0,0-1.92-.53Z"/><path class="a" d="M32.33,9.67h5.3l-.5,5.85h7.2l-.45,4.9H36.73l-1.2,13.45c0,.23-.06.49-.08.78s0,.52,0,.72a2,2,0,0,0,1.4,2.1,3.43,3.43,0,0,0,1,.13l1.65,0,1.7,0h1.2l-.45,4.95h-2c-.78,0-1.56,0-2.32,0s-1.48-.08-2.13-.15a6,6,0,0,1-1.47-.3,6.41,6.41,0,0,1-2.78-1.95,5.6,5.6,0,0,1-1.12-3.7c0-.57,0-1.08.05-1.55s.08-1,.15-1.55Z"/><path class="a" d="M65.28,36.07a7.21,7.21,0,0,1-1.73,4.2,6.57,6.57,0,0,1-3.72,2.1,11.2,11.2,0,0,1-2.18.23l-3,0c-1.17,0-2.23,0-3.18,0a7,7,0,0,1-2.42-.45,6.41,6.41,0,0,1-2.78-1.95,5.6,5.6,0,0,1-1.12-3.7c0-.57,0-1.08,0-1.55s.08-1,.15-1.55l1-11.3a7.14,7.14,0,0,1,1.72-4.2,6.59,6.59,0,0,1,3.73-2.1,10.53,10.53,0,0,1,2.2-.22q1.35,0,3,0c1.16,0,2.21,0,3.15.05a7,7,0,0,1,2.4.45A6.38,6.38,0,0,1,65.35,18a5.6,5.6,0,0,1,1.13,3.7c0,.57,0,1.08,0,1.55s-.09,1-.15,1.55ZM61,24.37c0-.3,0-.57.07-.8s0-.48,0-.75a2,2,0,0,0-1.5-2.15,4.21,4.21,0,0,0-1.08-.17c-.38,0-1,0-1.72,0H55.38a8.69,8.69,0,0,0-1.3.1,2.53,2.53,0,0,0-1.75.83,3,3,0,0,0-.75,1.87l-.95,10.6c0,.23-.06.49-.08.78s0,.52,0,.72a2,2,0,0,0,1.4,2.1,5.75,5.75,0,0,0,1.4.18l1.65,0h1.3a8.79,8.79,0,0,0,1.3-.1,2.7,2.7,0,0,0,1.75-.77,2.84,2.84,0,0,0,.75-1.73Z"/><path class="a" d="M89.72,36.07A7.21,7.21,0,0,1,88,40.27a6.57,6.57,0,0,1-3.72,2.1,11.2,11.2,0,0,1-2.18.23l-3,0H74.27l-.7,8.5h-5.3l2.5-29a7.14,7.14,0,0,1,1.72-4.2,6.59,6.59,0,0,1,3.73-2.1,10.53,10.53,0,0,1,2.2-.22q1.35,0,3,0c1.16,0,2.21,0,3.15.05A7,7,0,0,1,87,16,6.38,6.38,0,0,1,89.74,18a5.6,5.6,0,0,1,1.13,3.7c0,.57,0,1.08-.05,1.55s-.09,1-.15,1.55Zm-4.3-11.7c0-.3,0-.57.07-.8s0-.48,0-.75A2,2,0,0,0,84,20.67a4.21,4.21,0,0,0-1.08-.17c-.38,0-1,0-1.72,0H79.77a8.69,8.69,0,0,0-1.3.1,2.53,2.53,0,0,0-1.75.83A3,3,0,0,0,76,23.27l-.9,10.6c0,.23-.06.49-.08.78s0,.52,0,.72a2,2,0,0,0,1.4,2.1,5.75,5.75,0,0,0,1.4.18l1.65,0h1.3a8.79,8.79,0,0,0,1.3-.1,2.7,2.7,0,0,0,1.75-.77,2.84,2.84,0,0,0,.75-1.73Z"/><path class="a" d="M112.33,33.77c0,.3-.06.57-.08.8s0,.48,0,.75a2,2,0,0,0,1.5,2.15,4.25,4.25,0,0,0,.92.18l1,0h1a3.49,3.49,0,0,0,.88-.1,2.81,2.81,0,0,0,2.5-2.7l1.65-19.35H127l-1.75,20.55a7.21,7.21,0,0,1-1.73,4.2,6.57,6.57,0,0,1-3.72,2.1,10.29,10.29,0,0,1-2,.23l-2.3,0c-.87,0-1.69,0-2.45-.1a7.12,7.12,0,0,1-2.15-.5,5.56,5.56,0,0,1-1.7-1.05,4.58,4.58,0,0,1-1.2.78,12.67,12.67,0,0,1-1.35.47,9.58,9.58,0,0,1-1.75.33c-.57.05-1.4.07-2.5.07h-1.5c-.44,0-.84,0-1.2,0a7.72,7.72,0,0,1-1-.15,6.33,6.33,0,0,1-1-.3,6.41,6.41,0,0,1-2.78-1.95,5.6,5.6,0,0,1-1.12-3.7c0-.57,0-1.08,0-1.55s.08-1,.15-1.55l1.55-17.85h5.3l-1.6,18.25c0,.3-.06.58-.08.83s0,.5,0,.77a2,2,0,0,0,1.5,2.1,4.28,4.28,0,0,0,1,.18l1,0h1a4.08,4.08,0,0,0,.93-.1,3.39,3.39,0,0,0,1.72-.77,2.57,2.57,0,0,0,.73-1.73l1.7-19.55h5.3Z"/><path class="a" d="M149.44,36.07a7.21,7.21,0,0,1-1.73,4.2,6.57,6.57,0,0,1-3.72,2.1,11.2,11.2,0,0,1-2.18.23l-3,0c-1.17,0-2.23,0-3.18,0a7,7,0,0,1-2.42-.45,6.41,6.41,0,0,1-2.78-1.95,5.6,5.6,0,0,1-1.12-3.7c0-.57,0-1.08,0-1.55s.08-1,.15-1.55l1-11.3a7.14,7.14,0,0,1,1.72-4.2,6.59,6.59,0,0,1,3.73-2.1,10.53,10.53,0,0,1,2.2-.22q1.35,0,3,0c1.16,0,2.21,0,3.15.05a7,7,0,0,1,2.4.45A6.38,6.38,0,0,1,149.51,18a5.6,5.6,0,0,1,1.13,3.7c0,.57,0,1.08,0,1.55s-.09,1-.15,1.55Zm-4.25-11.7c0-.3.05-.57.07-.8s0-.48,0-.75a2,2,0,0,0-1.5-2.15,4.21,4.21,0,0,0-1.08-.17c-.38,0-1,0-1.72,0h-1.45a8.69,8.69,0,0,0-1.3.1,2.53,2.53,0,0,0-1.75.83,3,3,0,0,0-.75,1.87l-1,10.6c0,.23-.06.49-.08.78s0,.52,0,.72a2,2,0,0,0,1.4,2.1,5.75,5.75,0,0,0,1.4.18l1.65,0h1.3a8.79,8.79,0,0,0,1.3-.1,2.7,2.7,0,0,0,1.75-.77,2.84,2.84,0,0,0,.75-1.73Z"/><path class="a" d="M155.06,22.07a7.14,7.14,0,0,1,1.72-4.2,6.59,6.59,0,0,1,3.73-2.1,10.53,10.53,0,0,1,2.2-.22q1.35,0,3,0h4.6l-.45,4.95h-5.8a8.69,8.69,0,0,0-1.3.1,2.53,2.53,0,0,0-1.75.83,3,3,0,0,0-.75,1.87l-1.7,19.35h-5.3Z"/><path class="a" d="M190.93,36.07a7.2,7.2,0,0,1-1.72,4.2,6.62,6.62,0,0,1-3.73,2.1,11.08,11.08,0,0,1-2.17.23l-3,0c-1.17,0-2.22,0-3.17,0a7.11,7.11,0,0,1-2.43-.45A6.38,6.38,0,0,1,172,40.17a5.6,5.6,0,0,1-1.13-3.7c0-.57,0-1.08,0-1.55s.08-1,.15-1.55l.95-11.3a7.14,7.14,0,0,1,1.73-4.2,6.57,6.57,0,0,1,3.72-2.1,10.61,10.61,0,0,1,2.2-.22q1.35,0,3,0h4.8l.7-8h5.3Zm-4.3-11.7c0-.3.06-.57.08-.8s0-.48,0-.75a2,2,0,0,0-1.5-2.15,4.06,4.06,0,0,0-1.07-.17c-.39,0-1,0-1.73,0H181a8.79,8.79,0,0,0-1.3.1,2.55,2.55,0,0,0-1.75.83,3.14,3.14,0,0,0-.75,1.87l-.9,10.6c0,.23-.06.48-.07.75s0,.5,0,.7a2,2,0,0,0,1.5,2.15,5.12,5.12,0,0,0,1.25.18l1.7,0h1.43a8.11,8.11,0,0,0,1.17-.1A2.68,2.68,0,0,0,185,36.8a2.84,2.84,0,0,0,.75-1.73Z"/><path class="a" d="M202.64,31.42a9.69,9.69,0,0,1-3.4-.5,6,6,0,0,1-2.75-2,5.66,5.66,0,0,1-1.1-3.58c0-.57,0-1.15.05-1.75s.08-1.13.15-1.6a7.25,7.25,0,0,1,1.75-4.15,6.55,6.55,0,0,1,3.7-2.05,10.53,10.53,0,0,1,2.2-.22q1.35,0,3,0h6.85l-.45,4.95h-8a8.69,8.69,0,0,0-1.3.1,2.53,2.53,0,0,0-1.75.83,3,3,0,0,0-.75,1.87,2.54,2.54,0,0,0,0,.5v.5a2,2,0,0,0,1.4,2.05,3.65,3.65,0,0,0,.87.15c.38,0,.76.05,1.13.05h2.45a7.24,7.24,0,0,1,4.85,1.58,5.61,5.61,0,0,1,1.85,4.52,17,17,0,0,1-.1,1.73c-.07.58-.14,1.15-.2,1.72a8,8,0,0,1-1.78,4.2,6.34,6.34,0,0,1-3.67,2.1,11.2,11.2,0,0,1-2.18.23l-3,0h-7.9l.45-4.95H204a8.79,8.79,0,0,0,1.3-.1,2.67,2.67,0,0,0,2.5-2.4,5.52,5.52,0,0,0,.12-.8c0-.27,0-.48,0-.65a2,2,0,0,0-.73-1.77,3.19,3.19,0,0,0-1.92-.53Z"/></svg>