<svg xmlns="http://www.w3.org/2000/svg" width="170" height="38" viewBox="0 0 170 38"><defs><style>.a{fill:#0070c0;}</style></defs><title>stopwords_logo_small</title><path class="a" d="M9.73,21.29a7.42,7.42,0,0,1-2.68-.4,4.73,4.73,0,0,1-2.18-1.6A4.48,4.48,0,0,1,4,16.46c0-.44,0-.91,0-1.38s.07-.9.12-1.27a5.81,5.81,0,0,1,1.38-3.28A5.27,5.27,0,0,1,8.47,8.91a9.5,9.5,0,0,1,1.74-.18l2.37,0H18l-.36,3.92H11.28a6.36,6.36,0,0,0-1,.08,2.05,2.05,0,0,0-1.39.65,2.47,2.47,0,0,0-.59,1.48,2.15,2.15,0,0,0,0,.4v.39a1.56,1.56,0,0,0,1.11,1.62,2.54,2.54,0,0,0,.69.12c.3,0,.6,0,.89,0h1.94a5.7,5.7,0,0,1,3.83,1.25,4.43,4.43,0,0,1,1.47,3.58,12.7,12.7,0,0,1-.08,1.36c-.06.46-.11.92-.16,1.36a6.31,6.31,0,0,1-1.4,3.33A5.09,5.09,0,0,1,13.61,30a8.65,8.65,0,0,1-1.72.17c-.7,0-1.48,0-2.35,0H3.29l.36-3.91H10.8a7.73,7.73,0,0,0,1-.08,2.12,2.12,0,0,0,2-1.9,4.58,4.58,0,0,0,.1-.63c0-.21,0-.38,0-.51a1.64,1.64,0,0,0-.58-1.41,2.58,2.58,0,0,0-1.52-.41Z"/><path class="a" d="M22.25,4.09h4.19L26,8.71h5.7l-.36,3.88H25.73l-.95,10.63a5.44,5.44,0,0,0-.06.62c0,.22,0,.41,0,.57a1.56,1.56,0,0,0,1.11,1.66,2.71,2.71,0,0,0,.79.1l1.3,0,1.35,0h.94l-.35,3.91h-1.6c-.62,0-1.23,0-1.84,0S25.23,30,24.72,30a5.22,5.22,0,0,1-1.17-.24,5.07,5.07,0,0,1-2.19-1.54,4.48,4.48,0,0,1-.89-2.93c0-.45,0-.86,0-1.23s.06-.77.12-1.22Z"/><path class="a" d="M48.41,25a5.71,5.71,0,0,1-1.36,3.33A5.23,5.23,0,0,1,44.1,30a8.65,8.65,0,0,1-1.72.17c-.7,0-1.48,0-2.35,0s-1.76,0-2.51,0a5.62,5.62,0,0,1-1.92-.35,5.16,5.16,0,0,1-2.2-1.54,4.47,4.47,0,0,1-.88-2.93q0-.68,0-1.23c0-.36.07-.77.12-1.22l.79-8.94a5.71,5.71,0,0,1,1.37-3.32,5.24,5.24,0,0,1,2.94-1.66,9.5,9.5,0,0,1,1.74-.18l2.38,0c.92,0,1.75,0,2.49,0a5.72,5.72,0,0,1,1.89.36,5.1,5.1,0,0,1,2.2,1.54,4.46,4.46,0,0,1,.89,2.93c0,.45,0,.85,0,1.22s-.07.78-.12,1.23Zm-3.36-9.25c0-.24,0-.45.06-.63s0-.38,0-.59a1.58,1.58,0,0,0-1.19-1.7,3.29,3.29,0,0,0-.85-.14c-.3,0-.76,0-1.36,0H40.58a6.36,6.36,0,0,0-1,.08,2,2,0,0,0-1.38.65,2.47,2.47,0,0,0-.59,1.48l-.75,8.38a5.44,5.44,0,0,0-.06.62c0,.22,0,.41,0,.57a1.55,1.55,0,0,0,1.1,1.66,4.36,4.36,0,0,0,1.11.14l1.3,0h1a7.73,7.73,0,0,0,1-.08,2.11,2.11,0,0,0,1.38-.61,2.22,2.22,0,0,0,.6-1.37Z"/><path class="a" d="M67.85,25a5.71,5.71,0,0,1-1.36,3.33A5.23,5.23,0,0,1,63.54,30a8.65,8.65,0,0,1-1.72.17c-.7,0-1.48,0-2.35,0H55.63l-.55,6.73H50.89l2-23a5.64,5.64,0,0,1,1.36-3.32,5.23,5.23,0,0,1,3-1.66,9.31,9.31,0,0,1,1.74-.18l2.37,0c.92,0,1.75,0,2.49,0a5.79,5.79,0,0,1,1.9.36,5.07,5.07,0,0,1,2.19,1.54,4.46,4.46,0,0,1,.89,2.93c0,.45,0,.85,0,1.22s-.07.78-.12,1.23Zm-3.4-9.25q0-.36.06-.63c0-.18,0-.38,0-.59a1.58,1.58,0,0,0-1.19-1.7,3.22,3.22,0,0,0-.85-.14c-.3,0-.76,0-1.36,0H60a6.44,6.44,0,0,0-1,.08,2,2,0,0,0-1.38.65A2.47,2.47,0,0,0,57,14.84l-.71,8.38a5.44,5.44,0,0,0-.06.62c0,.22,0,.41,0,.57a1.56,1.56,0,0,0,1.1,1.66,4.36,4.36,0,0,0,1.11.14l1.31,0h1a7.73,7.73,0,0,0,1-.08,2.16,2.16,0,0,0,1.39-.61,2.21,2.21,0,0,0,.59-1.37Z"/><path class="a" d="M85.84,23.15q0,.34-.06.63a5.53,5.53,0,0,0,0,.59,1.58,1.58,0,0,0,1.18,1.7,3.09,3.09,0,0,0,.74.14l.81,0h.77a3,3,0,0,0,.69-.08,2.22,2.22,0,0,0,2-2.14l1.3-15.3h4.19L96,25a5.65,5.65,0,0,1-1.37,3.33A5.21,5.21,0,0,1,91.73,30a8,8,0,0,1-1.58.17c-.61,0-1.22,0-1.82,0s-1.33,0-1.94-.08a5.86,5.86,0,0,1-1.7-.39,4.44,4.44,0,0,1-1.34-.83,3.34,3.34,0,0,1-.95.61,9.69,9.69,0,0,1-1.07.38,8.06,8.06,0,0,1-1.38.25q-.67.06-2,.06H76.78a9.39,9.39,0,0,1-1,0A6.34,6.34,0,0,1,75,30a6.73,6.73,0,0,1-.77-.24,5.07,5.07,0,0,1-2.19-1.54,4.42,4.42,0,0,1-.89-2.93c0-.45,0-.86,0-1.23s.06-.77.12-1.22L72.55,8.71h4.19L75.48,23.15c0,.23,0,.45-.06.65s0,.4,0,.61a1.56,1.56,0,0,0,1.18,1.66,3.15,3.15,0,0,0,.76.14l.79,0h.77a3.55,3.55,0,0,0,.73-.08A2.72,2.72,0,0,0,81,25.54a2.07,2.07,0,0,0,.58-1.37L82.91,8.71H87.1Z"/><path class="a" d="M115.29,25a5.64,5.64,0,0,1-1.36,3.33A5.23,5.23,0,0,1,111,30a8.65,8.65,0,0,1-1.72.17c-.7,0-1.48,0-2.35,0s-1.76,0-2.51,0a5.62,5.62,0,0,1-1.92-.35,5.07,5.07,0,0,1-2.19-1.54,4.42,4.42,0,0,1-.89-2.93c0-.45,0-.86,0-1.23s.06-.77.12-1.22l.79-8.94a5.64,5.64,0,0,1,1.36-3.32,5.23,5.23,0,0,1,3-1.66,9.31,9.31,0,0,1,1.74-.18l2.37,0c.92,0,1.75,0,2.49,0a5.79,5.79,0,0,1,1.9.36,5.07,5.07,0,0,1,2.19,1.54,4.46,4.46,0,0,1,.89,2.93c0,.45,0,.85,0,1.22s-.06.78-.12,1.23Zm-3.36-9.25q0-.36.06-.63c0-.18,0-.38,0-.59a1.57,1.57,0,0,0-1.19-1.7,3.22,3.22,0,0,0-.85-.14c-.3,0-.75,0-1.36,0h-1.15a6.24,6.24,0,0,0-1,.08,2,2,0,0,0-1.39.65,2.47,2.47,0,0,0-.59,1.48l-.75,8.38a5.44,5.44,0,0,0-.06.62c0,.22,0,.41,0,.57a1.56,1.56,0,0,0,1.11,1.66,4.21,4.21,0,0,0,1.1.14l1.31,0h1a7.72,7.72,0,0,0,1-.08,2.16,2.16,0,0,0,1.39-.61,2.21,2.21,0,0,0,.59-1.37Z"/><path class="a" d="M119.85,13.89a5.65,5.65,0,0,1,1.37-3.32,5.17,5.17,0,0,1,2.94-1.66,9.5,9.5,0,0,1,1.74-.18l2.37,0h3.64l-.36,3.92H127a6.36,6.36,0,0,0-1,.08,2,2,0,0,0-1.38.65,2.48,2.48,0,0,0-.6,1.48l-1.34,15.3h-4.19Z"/><path class="a" d="M148.32,25A5.64,5.64,0,0,1,147,28.29,5.23,5.23,0,0,1,144,30a8.65,8.65,0,0,1-1.72.17c-.7,0-1.48,0-2.35,0s-1.76,0-2.51,0a5.62,5.62,0,0,1-1.92-.35,5.07,5.07,0,0,1-2.19-1.54,4.48,4.48,0,0,1-.89-2.93c0-.45,0-.86,0-1.23s.06-.77.12-1.22l.75-8.94a5.64,5.64,0,0,1,1.36-3.32,5.23,5.23,0,0,1,3-1.66,9.5,9.5,0,0,1,1.74-.18l2.37,0h3.8l.55-6.32h4.19Zm-3.4-9.25q0-.36.06-.63c0-.18,0-.38,0-.59a1.58,1.58,0,0,0-1.18-1.7,3.36,3.36,0,0,0-.85-.14c-.31,0-.76,0-1.37,0h-1.15a6.33,6.33,0,0,0-1,.08,2.05,2.05,0,0,0-1.39.65,2.47,2.47,0,0,0-.59,1.48l-.71,8.38a5.54,5.54,0,0,0-.06.6c0,.21,0,.39,0,.55a1.58,1.58,0,0,0,1.19,1.7,3.71,3.71,0,0,0,1,.14l1.35,0h1.12a7.14,7.14,0,0,0,.93-.08,2.16,2.16,0,0,0,1.39-.61,2.21,2.21,0,0,0,.59-1.37Z"/><path class="a" d="M157.7,21.29a7.44,7.44,0,0,1-2.69-.4,4.73,4.73,0,0,1-2.18-1.6,4.48,4.48,0,0,1-.87-2.83c0-.44,0-.91,0-1.38s.07-.9.12-1.27a5.75,5.75,0,0,1,1.39-3.28,5.24,5.24,0,0,1,2.92-1.62,9.5,9.5,0,0,1,1.74-.18l2.37,0H166l-.36,3.92h-6.36a6.36,6.36,0,0,0-1,.08,2,2,0,0,0-1.38.65,2.48,2.48,0,0,0-.6,1.48,3.58,3.58,0,0,0,0,.4v.39a1.56,1.56,0,0,0,1.11,1.62,2.54,2.54,0,0,0,.69.12c.31,0,.6,0,.89,0h1.94a5.74,5.74,0,0,1,3.84,1.25,4.45,4.45,0,0,1,1.46,3.58A12.7,12.7,0,0,1,166,23.6c0,.46-.11.92-.16,1.36a6.23,6.23,0,0,1-1.4,3.33A5,5,0,0,1,161.57,30a8.65,8.65,0,0,1-1.72.17c-.7,0-1.48,0-2.35,0h-6.25l.36-3.91h7.15a7.73,7.73,0,0,0,1-.08,2.12,2.12,0,0,0,2-1.9,4.58,4.58,0,0,0,.1-.63c0-.21,0-.38,0-.51a1.61,1.61,0,0,0-.58-1.41,2.58,2.58,0,0,0-1.52-.41Z"/></svg>